<?xml version="1.0" encoding="UTF-8"?><svg xmlns="http://www.w3.org/2000/svg" xmlns:xlink="http://www.w3.org/1999/xlink" width="120px" height="120px" viewBox="0 0 120 120" version="1.1"><title>Calendar</title><g id="@2x" stroke="none" stroke-width="1" fill="none" fill-rule="evenodd"><g id="Calendar"><rect id="bg" fill="#FFF" x="0" y="0" width="120" height="120" rx="28"/><path d="M37.786 34V17.794h-2.942l-5.166 12.309h-.19l-5.156-12.309H21.39V34h2.336V22.298h.157l4.75 11.23h1.91l4.75-11.23h.157V34h2.336zm7.993.236c-3.583 0-5.773-2.392-5.773-6.357 0-3.942 2.201-6.345 5.773-6.345 3.56 0 5.761 2.404 5.761 6.345 0 3.965-2.19 6.357-5.761 6.357zm0-2.145c2.089 0 3.279-1.55 3.279-4.212 0-2.65-1.19-4.2-3.28-4.2-2.1 0-3.279 1.55-3.279 4.2 0 2.673 1.18 4.212 3.28 4.212zm7.7 1.909h2.415v-7.154c0-1.909 1.134-3.1 2.92-3.1 1.785 0 2.639.978 2.639 2.943V34h2.414v-7.917c0-2.91-1.505-4.549-4.234-4.549-1.841 0-3.054.82-3.65 2.179h-.18V21.77H53.48V34zm17.291.202c-3.11 0-5.076-2.448-5.076-6.323 0-3.863 1.988-6.311 5.076-6.311 1.674 0 3.089.797 3.751 2.145h.18v-6.716h2.414V34h-2.313v-1.932h-.19c-.73 1.337-2.157 2.134-3.842 2.134zm.685-10.467c-2.032 0-3.268 1.573-3.268 4.144 0 2.595 1.224 4.156 3.268 4.156 2.033 0 3.29-1.584 3.29-4.144 0-2.55-1.268-4.156-3.29-4.156zm12.316 8.434c1.82 0 3.167-1.156 3.167-2.672v-1.022l-2.987.19c-1.684.113-2.448.686-2.448 1.764 0 1.1.954 1.74 2.268 1.74zm-.617 2.033c-2.359 0-4.077-1.426-4.077-3.661 0-2.201 1.64-3.47 4.548-3.65l3.313-.19v-1.056c0-1.292-.853-2.022-2.504-2.022-1.348 0-2.28.494-2.55 1.359H79.55c.247-2.1 2.223-3.448 4.997-3.448 3.066 0 4.796 1.528 4.796 4.11V34h-2.325v-1.718h-.19c-.73 1.224-2.067 1.92-3.673 1.92zm9.474 4.234c2.494 0 3.65-.955 4.695-3.93l4.56-12.736h-2.561l-3.055 9.714h-.19L93.01 21.77h-2.628l4.425 12.275-.18.595c-.415 1.235-1.066 1.707-2.212 1.707-.224 0-.595-.011-.786-.045v2.078c.225.034.797.056 1 .056z" id="Monday" fill="#F00"/><path d="M59.475 100.8c10.892 0 18.89-7.732 18.89-18.32 0-10.473-7.77-18.28-18.129-18.28-5.941 0-11.464 2.741-14.434 7.083h-.115l2.59-23.499h26.546v-2.742H45.687l-3.275 29.974h3.047c2.97-5.066 8.34-8.113 14.434-8.113 8.798 0 15.463 6.742 15.463 15.616 0 8.95-6.74 15.577-15.843 15.577-7.77 0-14.13-4.913-14.968-11.54h-3.009c.838 8.226 8.455 14.244 17.939 14.244z" id="5" fill="#000"/></g></g><metadata><rdf:RDF xmlns:rdf="http://www.w3.org/1999/02/22-rdf-syntax-ns#" xmlns:rdfs="http://www.w3.org/2000/01/rdf-schema#" xmlns:dc="http://purl.org/dc/elements/1.1/"><rdf:Description about="https://iconscout.com/legal#licenses" dc:title="calendar" dc:description="calendar" dc:publisher="Iconscout" dc:date="2017-09-26" dc:format="image/svg+xml" dc:language="en"><dc:creator><rdf:Bag><rdf:li>Giulio Smedile</rdf:li></rdf:Bag></dc:creator></rdf:Description></rdf:RDF></metadata></svg>