<?xml version="1.0" encoding="UTF-8"?><svg xmlns="http://www.w3.org/2000/svg" xmlns:xlink="http://www.w3.org/1999/xlink" width="120px" height="120px" viewBox="0 0 120 120" version="1.1"><title>Camera</title><defs><linearGradient x1="50%" y1="0%" x2="50%" y2="100%" id="linearGradient-1"><stop stop-color="#E3E2E4" offset="0%"/><stop stop-color="#9DA0A4" offset="100%"/></linearGradient><linearGradient x1="50%" y1="-124.199642%" x2="46.4710801%" y2="207.672391%" id="linearGradient-2"><stop stop-color="#E3E2E4" offset="0%"/><stop stop-color="#9DA0A4" offset="100%"/></linearGradient></defs><g id="@2x" stroke="none" stroke-width="1" fill="none" fill-rule="evenodd"><g id="Camera"><rect id="bg" fill="url(#linearGradient-1)" x="0" y="0" width="120" height="120" rx="28"/><path d="M21.179 36.1H97.82c2.86 0 5.179 2.049 5.179 4.576v44.848c0 2.527-2.319 4.576-5.179 4.576H21.18c-2.86 0-5.179-2.049-5.179-4.576V40.676c0-2.527 2.319-4.576 5.179-4.576zm12.818-.055C45.67 36.135 39.903 26.1 52 26.1h8v10l-26.003-.055zm52.006 0L60 36.1v-10h8c12.097 0 6.329 10.034 18.003 9.945zM27 30.1h6a1 1 0 0 1 1 1v2a1 1 0 0 1-1 1h-6a1 1 0 0 1-1-1v-2a1 1 0 0 1 1-1z" id="camera" fill="#2F2E32"/><g id="extra" transform="translate(41.000000, 43.000000)"><path d="M18.5 35C27.06 35 34 28.06 34 19.5 34 10.94 27.06 4 18.5 4 9.94 4 3 10.94 3 19.5 3 28.06 9.94 35 18.5 35zm0 3C8.283 38 0 29.717 0 19.5S8.283 1 18.5 1 37 9.283 37 19.5 28.717 38 18.5 38z" id="Oval-2" fill="url(#linearGradient-2)" fill-rule="nonzero"/><circle id="Oval-3" fill="#FFD433" cx="40.5" cy="2.5" r="2.5"/></g></g></g><metadata><rdf:RDF xmlns:rdf="http://www.w3.org/1999/02/22-rdf-syntax-ns#" xmlns:rdfs="http://www.w3.org/2000/01/rdf-schema#" xmlns:dc="http://purl.org/dc/elements/1.1/"><rdf:Description about="https://iconscout.com/legal#licenses" dc:title="camera" dc:description="camera" dc:publisher="Iconscout" dc:date="2017-09-26" dc:format="image/svg+xml" dc:language="en"><dc:creator><rdf:Bag><rdf:li>Giulio Smedile</rdf:li></rdf:Bag></dc:creator></rdf:Description></rdf:RDF></metadata></svg>