<?xml version="1.0" encoding="UTF-8"?><svg xmlns="http://www.w3.org/2000/svg" xmlns:xlink="http://www.w3.org/1999/xlink" width="120px" height="120px" viewBox="0 0 120 120" version="1.1"><title>Home</title><defs><rect id="path-1" x="0" y="0" width="120" height="120" rx="28"/></defs><g id="@2x" stroke="none" stroke-width="1" fill="none" fill-rule="evenodd"><g id="Home"><mask id="mask-2" fill="#fff"><use xlink:href="#path-1"/></mask><use id="bg" fill="#FFF" xlink:href="#path-1"/><path d="M85 33.845L62 15.5h-.05a3.36 3.36 0 0 0-1.95-.6 3.36 3.36 0 0 0-1.95.6H58L16.535 48.574A1.5 1.5 0 0 0 17 51.5h8V93a4 4 0 0 0 4 4h62a4 4 0 0 0 4-4V51.5h8a1.5 1.5 0 0 0 .465-2.926L95 41.82V28a2 2 0 0 0-2-2h-6a2 2 0 0 0-2 2v5.845z" id="house-1" fill="#FF9F24" mask="url(#mask-2)"/><path d="M58.677 23.5c.353-.311.816-.5 1.323-.5s.97.189 1.323.5h.027L87.5 44l.06.08A2 2 0 0 1 89 46v42a2 2 0 0 1-2 2H33a2 2 0 0 1-2-2V46l.004-.008a2 2 0 0 1 1.37-2.034L58.65 23.5h.027z" id="house-3" fill="#FFB841" mask="url(#mask-2)"/><path d="M58.954 30.396A1.576 1.576 0 0 1 60 30c.401 0 .768.15 1.046.396h.022l20.686 16.216.047.063c.658.191 1.14.799 1.14 1.519v33.224c0 .874-.709 1.582-1.583 1.582H38.642a1.582 1.582 0 0 1-1.582-1.582V48.194l.003-.006a1.583 1.583 0 0 1 1.084-1.61l20.785-16.182h.022z" id="house-3" fill="#FFC85F" mask="url(#mask-2)"/><path d="M44.5 53v22c0 1.5.5 2 2 2H73c1.5 0 2.5-1 2.5-2.5V53c0-1-.5-1.833-1.5-2.5l-13-10c-1-.5-1.5-.5-2.5 0L46 50.5c-1 .667-1.5 1.5-1.5 2.5z" id="house-4" fill="#FFD779" mask="url(#mask-2)"/><path d="M51 56.913v12.689c0 .865.288 1.153 1.154 1.153h15.284c.865 0 1.442-.577 1.442-1.442v-12.4c0-.577-.289-1.058-.865-1.442l-7.498-5.768c-.577-.288-.866-.288-1.442 0l-7.21 5.768c-.577.384-.865.865-.865 1.442z" id="house-5" fill="#FFE996" mask="url(#mask-2)"/></g></g><metadata><rdf:RDF xmlns:rdf="http://www.w3.org/1999/02/22-rdf-syntax-ns#" xmlns:rdfs="http://www.w3.org/2000/01/rdf-schema#" xmlns:dc="http://purl.org/dc/elements/1.1/"><rdf:Description about="https://iconscout.com/legal#licenses" dc:title="home" dc:description="home" dc:publisher="Iconscout" dc:date="2017-09-26" dc:format="image/svg+xml" dc:language="en"><dc:creator><rdf:Bag><rdf:li>Giulio Smedile</rdf:li></rdf:Bag></dc:creator></rdf:Description></rdf:RDF></metadata></svg>