<?xml version="1.0" encoding="UTF-8"?><svg xmlns="http://www.w3.org/2000/svg" xmlns:xlink="http://www.w3.org/1999/xlink" width="120px" height="120px" viewBox="0 0 120 120" version="1.1"><title>iBooks</title><defs><linearGradient x1="50%" y1="0%" x2="50%" y2="100%" id="linearGradient-1"><stop stop-color="#FFCE55" offset="0%"/><stop stop-color="#F45413" offset="100%"/></linearGradient></defs><g id="@2x" stroke="none" stroke-width="1" fill="none" fill-rule="evenodd"><g id="iBooks"><rect id="bg" fill="url(#linearGradient-1)" x="0" y="0" width="120" height="120" rx="28"/><path d="M58.5 97.412c-3.208-9.65-9.785-14.475-19.731-14.475-10.588 0-14.269 5.475-17.269 5.475-.962 0-1.5-.5-1.5-1.143V41.106C20 35.757 27.219 30 39.25 30c12.295 0 19.25 9.181 19.25 15.438v51.974zm2.5 0V45.437C61 39.181 67.955 30 80.25 30c12.031 0 19.25 5.757 19.25 11.106V87.27c0 .643-.537 1.143-1.5 1.143-3 0-6.681-5.475-17.269-5.475-9.946 0-16.523 4.826-19.731 14.475z" id="book" fill="#FFF"/></g></g><metadata><rdf:RDF xmlns:rdf="http://www.w3.org/1999/02/22-rdf-syntax-ns#" xmlns:rdfs="http://www.w3.org/2000/01/rdf-schema#" xmlns:dc="http://purl.org/dc/elements/1.1/"><rdf:Description about="https://iconscout.com/legal#licenses" dc:title="ibooks" dc:description="ibooks" dc:publisher="Iconscout" dc:date="2017-09-26" dc:format="image/svg+xml" dc:language="en"><dc:creator><rdf:Bag><rdf:li>Giulio Smedile</rdf:li></rdf:Bag></dc:creator></rdf:Description></rdf:RDF></metadata></svg>