<?xml version="1.0" encoding="UTF-8"?><svg xmlns="http://www.w3.org/2000/svg" xmlns:xlink="http://www.w3.org/1999/xlink" width="120px" height="120px" viewBox="0 0 120 120" version="1.1"><title>iTunes</title><defs><linearGradient x1="50%" y1="0%" x2="50%" y2="100%" id="linearGradient-1"><stop stop-color="#F53FC6" offset="0%"/><stop stop-color="#D135FA" offset="100%"/></linearGradient></defs><g id="@2x" stroke="none" stroke-width="1" fill="none" fill-rule="evenodd"><g id="iTunes"><rect id="bg" fill="url(#linearGradient-1)" x="0" y="0" width="120" height="120" rx="28"/><g id="star" transform="translate(11.000000, 15.000000)"><path id="Polygon" fill="#FFFCFF" transform="translate(49.380986, 48.930587) scale(1, -1) translate(-49.380986, -48.930587)" d="M49.381 30l19.381 14.462-7.403 23.4H37.403L30 44.461z"/><path d="M49 17.5v13L37 31 47 2h.015c.121-1.02.964-2 1.985-2 1.021 0 1.864.98 1.985 2H51l11 29.5-13-1v-13z" id="Combined-Shape" fill-opacity="0.82" fill="#FFF"/><path d="M65.211 72.613v13h-12l10-28.5h.015c.121-1.02.964-2 1.985-2 1.021 0 1.864.98 1.985 2h.015l11.732 31.258-13.732-2.758v-13z" id="Combined-Shape-Copy-2" fill-opacity="0.82" fill="#FFF" transform="translate(66.076865, 71.742069) rotate(145.000000) translate(-66.076865, -71.742069)"/><path d="M30.997 73.292v13l-12.036 1.805 10.036-30.305h.015c.121-1.021.964-2 1.985-2 1.022 0 1.864.979 1.985 2h.015l11.115 28.384-13.115.116v-13z" id="Combined-Shape-Copy-4" fill-opacity="0.82" fill="#FFF" transform="translate(31.536225, 71.944561) scale(-1, 1) rotate(145.000000) translate(-31.536225, -71.944561)"/><path d="M19.59 53.551l.001.144-12.715-1.249L16.52 22.77c.206-.938 1-1.783 1.948-1.783.914 0 1.684.783 1.923 1.68v-.001l11.796 31.17-12.596-.284z" id="Combined-Shape-Copy-3" fill-opacity="0.82" fill="#FFF" transform="translate(19.531130, 37.410819) scale(-1, 1) rotate(72.000000) translate(-19.531130, -37.410819)"/><path d="M78.459 38.595V52.03l-12.583.417L75.52 22.77c.206-.938 1-1.783 1.948-1.783.914 0 1.684.783 1.923 1.68v-.001l11.796 31.17-12.727-1.806V38.595z" id="Combined-Shape-Copy-5" fill-opacity="0.82" fill="#FFF" transform="translate(78.531130, 37.410819) rotate(72.000000) translate(-78.531130, -37.410819)"/></g></g></g><metadata><rdf:RDF xmlns:rdf="http://www.w3.org/1999/02/22-rdf-syntax-ns#" xmlns:rdfs="http://www.w3.org/2000/01/rdf-schema#" xmlns:dc="http://purl.org/dc/elements/1.1/"><rdf:Description about="https://iconscout.com/legal#licenses" dc:title="itunes" dc:description="itunes" dc:publisher="Iconscout" dc:date="2017-09-26" dc:format="image/svg+xml" dc:language="en"><dc:creator><rdf:Bag><rdf:li>Giulio Smedile</rdf:li></rdf:Bag></dc:creator></rdf:Description></rdf:RDF></metadata></svg>