<?xml version="1.0" encoding="UTF-8"?><svg xmlns="http://www.w3.org/2000/svg" xmlns:xlink="http://www.w3.org/1999/xlink" width="120px" height="120px" viewBox="0 0 120 120" version="1.1"><title>Mail</title><defs><linearGradient x1="50%" y1="0%" x2="50%" y2="100%" id="linearGradient-1"><stop stop-color="#008EE7" offset="0%"/><stop stop-color="#00D6FA" offset="100%"/></linearGradient></defs><g id="@2x" stroke="none" stroke-width="1" fill="none" fill-rule="evenodd"><g id="Mail"><rect id="bg" fill="url(#linearGradient-1)" x="0" y="0" width="120" height="120" rx="28"/><path d="M25.114 84.964l21.196-21.95 5.13 5.165a12.553 12.553 0 0 0 17.84 0l4.64-4.672L94.666 84.99c-.331.07-.675.106-1.027.106H26.26c-.394 0-.778-.046-1.146-.132zm73.392-46.215c.087.37.133.755.133 1.151v40.196c0 1.29-.489 2.466-1.29 3.353L76.033 61.378l22.472-22.63zM21.36 81.094V40.9c0-.868.221-1.685.61-2.397l22.226 22.382L22.482 83.37a4.983 4.983 0 0 1-1.122-2.277zm75.467-45.046L67.189 65.685c-3.905 3.906-10.237 3.906-14.142 0L23.26 35.9c.835-.627 1.874-.999 3-.999h67.378a4.98 4.98 0 0 1 3.188 1.148z" id="mail" fill="#FFF"/></g></g><metadata><rdf:RDF xmlns:rdf="http://www.w3.org/1999/02/22-rdf-syntax-ns#" xmlns:rdfs="http://www.w3.org/2000/01/rdf-schema#" xmlns:dc="http://purl.org/dc/elements/1.1/"><rdf:Description about="https://iconscout.com/legal#licenses" dc:title="mail" dc:description="mail" dc:publisher="Iconscout" dc:date="2017-09-26" dc:format="image/svg+xml" dc:language="en"><dc:creator><rdf:Bag><rdf:li>Giulio Smedile</rdf:li></rdf:Bag></dc:creator></rdf:Description></rdf:RDF></metadata></svg>