<?xml version="1.0" encoding="UTF-8"?><svg xmlns="http://www.w3.org/2000/svg" xmlns:xlink="http://www.w3.org/1999/xlink" width="120px" height="120px" viewBox="0 0 120 120" version="1.1"><title>Maps</title><defs><rect id="path-1" x="0" y="0" width="120" height="120" rx="28"/><path d="M125 104c21.54 0 39-17.46 39-39s-17.46-39-39-39-39 17.46-39 39 17.46 39 39 39zm0 26c-35.899 0-65-29.101-65-65S89.101 0 125 0s65 29.101 65 65-29.101 65-65 65z" id="path-3"/><path id="path-4" d="M0 75l129 90.787v35L0 110z"/><path id="path-5" d="M22 65h27v120H22z"/><filter x="-5.6%" y="-1.2%" width="111.1%" height="102.5%" filterUnits="objectBoundingBox" id="filter-6"><feMorphology radius="0.5" operator="dilate" in="SourceAlpha" result="shadowSpreadOuter1"/><feOffset dx="0" dy="0" in="shadowSpreadOuter1" result="shadowOffsetOuter1"/><feColorMatrix values="0 0 0 0 0 0 0 0 0 0 0 0 0 0 0 0 0 0 0.139945652 0" type="matrix" in="shadowOffsetOuter1"/></filter><circle id="path-7" cx="21" cy="21" r="21"/><filter x="-16.7%" y="-11.9%" width="133.3%" height="133.3%" filterUnits="objectBoundingBox" id="filter-8"><feOffset dx="0" dy="2" in="SourceAlpha" result="shadowOffsetOuter1"/><feGaussianBlur stdDeviation="2" in="shadowOffsetOuter1" result="shadowBlurOuter1"/><feColorMatrix values="0 0 0 0 0 0 0 0 0 0 0 0 0 0 0 0 0 0 0.15197577 0" type="matrix" in="shadowBlurOuter1"/></filter><path d="M40.74 1.31A21.591 21.591 0 0 1 45 14.2c0 12.155-10.074 22.01-22.5 22.01S0 26.354 0 14.2C0 9.385 1.58 4.932 4.26 1.31 6.447 2.922 9.553 3.928 13 3.928c3.866 0 7.305-1.267 9.5-3.234 2.195 1.967 5.634 3.234 9.5 3.234 3.446 0 6.552-1.006 8.74-2.618z" id="path-9"/></defs><g id="@2x" stroke="none" stroke-width="1" fill="none" fill-rule="evenodd"><g id="Maps"><mask id="mask-2" fill="#fff"><use xlink:href="#path-1"/></mask><use id="bg" fill="#E6E0DC" xlink:href="#path-1"/><g id="icon" mask="url(#mask-2)"><g transform="translate(-6.000000, -65.000000)"><path id="green" fill="#9CE177" fill-rule="evenodd" d="M39 57v57l95 66V57z"/><path id="pink" fill="#FFCDD8" fill-rule="evenodd" d="M1 102l36 23v72H1z"/><g id="Oval" fill="none" fill-rule="nonzero"><use fill="#F5EFEB" fill-rule="evenodd" xlink:href="#path-3"/><path stroke="#9CBB80" stroke-width="1" d="M125 103.5c-21.263 0-38.5-17.237-38.5-38.5s17.237-38.5 38.5-38.5 38.5 17.237 38.5 38.5-17.237 38.5-38.5 38.5zm0 27c-36.175 0-65.5-29.325-65.5-65.5S88.825-.5 125-.5s65.5 29.325 65.5 65.5-29.325 65.5-65.5 65.5z"/></g><g id="yellow" fill="none"><use fill="#FFD731" fill-rule="evenodd" xlink:href="#path-4"/><path stroke="#F5AE27" stroke-width="1" d="M.5 75.963v33.777l128 90.084v-33.777L.5 75.963z"/></g><g id="road" fill="none"><use fill="#000" fill-opacity="1" filter="url(#filter-6)" xlink:href="#path-5"/><use fill="#FFFEFF" fill-rule="evenodd" xlink:href="#path-5"/></g><path id="Rectangle" fill="#2D91E7" fill-rule="evenodd" d="M28 65h14v60H28z"/><g id="nav" stroke-width="1" fill="none" fill-rule="evenodd" transform="translate(15.000000, 115.000000)"><g id="Oval-2"><use fill="#000" fill-opacity="1" filter="url(#filter-8)" xlink:href="#path-7"/><use fill="#0078DB" fill-rule="evenodd" xlink:href="#path-7"/></g><path d="M21 24l-9 9 9-27v18zm0 0V6l9 27-9-9z" id="Combined-Shape" stroke="#FFF" fill="#FFF" stroke-linecap="round" stroke-linejoin="round"/></g><g id="sign" stroke-width="1" fill="none" fill-rule="evenodd" transform="translate(73.000000, 140.000000)"><path d="M1 12h43c-.379 5.302-1.212 9.302-2.5 12-1.288 2.698-3.955 6.198-8 10.5H13C7.834 29.64 4.667 26.14 3.5 24c-1.167-2.14-2-6.14-2.5-12z" id="Rectangle-5" fill="#0075DD"/><path id="Path-3" fill="#F00" d="M1 11l3.5-8.5 8 1.5 10-2L33 4l8-2 3 9z"/><g id="Combined-Shape"><use fill-opacity="0" fill="#E81718" fill-rule="evenodd" xlink:href="#path-9"/><path stroke="#0073E0" stroke-width="1" d="M41.143 1.013A22.087 22.087 0 0 1 45.5 14.199c0 12.435-10.3 22.51-23 22.51S-.5 26.634-.5 14.2c0-4.802 1.54-9.378 4.357-13.186l.297-.401.402.296C6.72 2.502 9.749 3.428 13 3.428c3.647 0 7.003-1.168 9.166-3.107L22.5.022l.334.3C24.997 2.26 28.354 3.427 32 3.427c3.25 0 6.28-.926 8.444-2.52l.402-.296.297.401z"/><path stroke="#FFF" stroke-width="2" d="M40.487 2.685C38.154 4.121 35.164 4.928 32 4.928c-3.653 0-7.068-1.077-9.5-2.937-2.432 1.86-5.847 2.937-9.5 2.937-3.164 0-6.154-.807-8.487-2.243A20.565 20.565 0 0 0 1 14.2c0 11.599 9.621 21.01 21.5 21.01S44 25.798 44 14.2c0-4.154-1.236-8.125-3.513-11.514z"/></g><path id="Rectangle-2" fill="#FFF" d="M1 11h43v2H1z"/></g></g></g></g></g><metadata><rdf:RDF xmlns:rdf="http://www.w3.org/1999/02/22-rdf-syntax-ns#" xmlns:rdfs="http://www.w3.org/2000/01/rdf-schema#" xmlns:dc="http://purl.org/dc/elements/1.1/"><rdf:Description about="https://iconscout.com/legal#licenses" dc:title="maps" dc:description="maps" dc:publisher="Iconscout" dc:date="2017-09-26" dc:format="image/svg+xml" dc:language="en"><dc:creator><rdf:Bag><rdf:li>Giulio Smedile</rdf:li></rdf:Bag></dc:creator></rdf:Description></rdf:RDF></metadata></svg>