<?xml version="1.0" encoding="UTF-8"?><svg xmlns="http://www.w3.org/2000/svg" xmlns:xlink="http://www.w3.org/1999/xlink" width="120px" height="120px" viewBox="0 0 120 120" version="1.1"><title>News</title><defs><linearGradient x1="50%" y1="0%" x2="50%" y2="100%" id="linearGradient-1"><stop stop-color="#FF5A76" offset="0%"/><stop stop-color="#FF416C" offset="100%"/></linearGradient><path d="M25 24h76v69a5 5 0 0 1-5 5H25V24zm-4 74c2 0 4-2 4-4v4h-4z" id="path-2"/><filter x="-15.0%" y="-10.8%" width="120.0%" height="121.6%" filterUnits="objectBoundingBox" id="filter-3"><feOffset dx="-4" dy="0" in="SourceAlpha" result="shadowOffsetOuter1"/><feGaussianBlur stdDeviation="2" in="shadowOffsetOuter1" result="shadowBlurOuter1"/><feColorMatrix values="0 0 0 0 0 0 0 0 0 0 0 0 0 0 0 0 0 0 0.2 0" type="matrix" in="shadowBlurOuter1"/></filter></defs><g id="@2x" stroke="none" stroke-width="1" fill="none" fill-rule="evenodd"><g id="News"><rect id="bg" fill="url(#linearGradient-1)" x="0" y="0" width="120" height="120" rx="28"/><path d="M17 32h14v66H21a4 4 0 0 1-4-4V32z" id="paper2" fill="#FFF"/><g id="paper"><use fill="#000" fill-opacity="1" filter="url(#filter-3)" xlink:href="#path-2"/><use fill="#FFF" fill-rule="evenodd" xlink:href="#path-2"/></g><path d="M35 70h66v4H35a2 2 0 1 1 0-4z" id="Rectangle" fill="#C8C7CC"/><path d="M35 78h66v4H35a2 2 0 1 1 0-4z" id="Rectangle-Copy" fill="#C8C7CC"/><path d="M35 86h66v4H35a2 2 0 1 1 0-4z" id="Rectangle-Copy-2" fill="#C8C7CC"/><path d="M62.42 51.826c.294.293.496.68.559 1.11l.021.007v6.793l-.018.017a1.981 1.981 0 0 1-2.229 2.229l-.017.018h-6.793l-.007-.021a1.976 1.976 0 0 1-1.11-.56l-.015.015-19.245-19.245.014-.015a1.976 1.976 0 0 1-.559-1.11L33 41.057v-6.793l.018-.017a1.981 1.981 0 0 1 2.229-2.229l.017-.018h6.793l.007.021c.376.055.718.217.995.453l.018-.02 19.357 19.357-.014.015zm.558-10.556a2.027 2.027 0 0 1-3.43 1.144l-.022.007-6.947-6.947.007-.022a2.027 2.027 0 0 1 1.143-3.43l.008-.022h6.947l.018.018a2.026 2.026 0 0 1 2.28 2.28l.018.018v6.947l-.022.007zM33.022 52.73a2.027 2.027 0 0 1 3.43-1.144l.022-.007 6.947 6.947-.007.022a2.027 2.027 0 0 1-1.143 3.43l-.008.022h-6.947l-.018-.018a2.026 2.026 0 0 1-2.28-2.28L33 59.684v-6.947l.022-.007z" id="logo" fill="#FF5B75"/></g></g><metadata><rdf:RDF xmlns:rdf="http://www.w3.org/1999/02/22-rdf-syntax-ns#" xmlns:rdfs="http://www.w3.org/2000/01/rdf-schema#" xmlns:dc="http://purl.org/dc/elements/1.1/"><rdf:Description about="https://iconscout.com/legal#licenses" dc:title="news" dc:description="news" dc:publisher="Iconscout" dc:date="2017-09-26" dc:format="image/svg+xml" dc:language="en"><dc:creator><rdf:Bag><rdf:li>Giulio Smedile</rdf:li></rdf:Bag></dc:creator></rdf:Description></rdf:RDF></metadata></svg>