<?xml version="1.0" encoding="UTF-8"?><svg xmlns="http://www.w3.org/2000/svg" xmlns:xlink="http://www.w3.org/1999/xlink" width="120px" height="120px" viewBox="0 0 120 120" version="1.1"><title>Notes</title><defs><rect id="path-1" x="0" y="0" width="120" height="120" rx="28"/><linearGradient x1="50%" y1="0%" x2="50%" y2="100%" id="linearGradient-3"><stop stop-color="#F4D87E" offset="0%"/><stop stop-color="#F5C52C" offset="100%"/></linearGradient><path id="path-4" d="M-9 0h137v30H-9z"/><filter x="-5.1%" y="-16.7%" width="110.2%" height="146.7%" filterUnits="objectBoundingBox" id="filter-5"><feOffset dx="0" dy="2" in="SourceAlpha" result="shadowOffsetOuter1"/><feGaussianBlur stdDeviation="2" in="shadowOffsetOuter1" result="shadowBlurOuter1"/><feColorMatrix values="0 0 0 0 0 0 0 0 0 0 0 0 0 0 0 0 0 0 0.5 0" type="matrix" in="shadowBlurOuter1"/></filter></defs><g id="@2x" stroke="none" stroke-width="1" fill="none" fill-rule="evenodd"><g id="Notes"><mask id="mask-2" fill="#fff"><use xlink:href="#path-1"/></mask><use id="bg" fill="#FFF" xlink:href="#path-1"/><g id="head" mask="url(#mask-2)"><use fill="#000" fill-opacity="1" filter="url(#filter-5)" xlink:href="#path-4"/><use fill="url(#linearGradient-3)" fill-rule="evenodd" xlink:href="#path-4"/></g><path id="Rectangle" fill="#C7C5C9" mask="url(#mask-2)" d="M0 59h120v2H0z"/><path id="Rectangle-Copy" fill="#C7C5C9" mask="url(#mask-2)" d="M0 89h120v2H0z"/><g id="dots" mask="url(#mask-2)" fill="#C2C0C4"><g transform="translate(0.000000, 35.000000)"><circle id="Oval" cx="11.5" cy="1.5" r="1.5"/><circle id="Oval-Copy-3" cx="16.5" cy="1.5" r="1.5"/><circle id="Oval-Copy-4" cx="21.5" cy="1.5" r="1.5"/><circle id="Oval-Copy-5" cx="26.5" cy="1.5" r="1.5"/><circle id="Oval-Copy-6" cx="31.5" cy="1.5" r="1.5"/><circle id="Oval-Copy-7" cx="36.5" cy="1.5" r="1.5"/><circle id="Oval-Copy-8" cx="41.5" cy="1.5" r="1.5"/><circle id="Oval-Copy-9" cx="46.5" cy="1.5" r="1.5"/><circle id="Oval-Copy-10" cx="51.5" cy="1.5" r="1.5"/><circle id="Oval-Copy-11" cx="56.5" cy="1.5" r="1.5"/><circle id="Oval-Copy-12" cx="61.5" cy="1.5" r="1.5"/><circle id="Oval-Copy-13" cx="66.5" cy="1.5" r="1.5"/><circle id="Oval-Copy-14" cx="71.5" cy="1.5" r="1.5"/><circle id="Oval-Copy-15" cx="76.5" cy="1.5" r="1.5"/><circle id="Oval-Copy-16" cx="81.5" cy="1.5" r="1.5"/><circle id="Oval-Copy-17" cx="86.5" cy="1.5" r="1.5"/><circle id="Oval-Copy-18" cx="91.5" cy="1.5" r="1.5"/><circle id="Oval-Copy-19" cx="96.5" cy="1.5" r="1.5"/><circle id="Oval-Copy-20" cx="101.5" cy="1.5" r="1.5"/><circle id="Oval-Copy-21" cx="106.5" cy="1.5" r="1.5"/><circle id="Oval-Copy-22" cx="111.5" cy="1.5" r="1.5"/><circle id="Oval-Copy-23" cx="116.5" cy="1.5" r="1.5"/><circle id="Oval-Copy" cx="6.5" cy="1.5" r="1.5"/><circle id="Oval-Copy-2" cx="1.5" cy="1.5" r="1.5"/></g></g></g></g><metadata><rdf:RDF xmlns:rdf="http://www.w3.org/1999/02/22-rdf-syntax-ns#" xmlns:rdfs="http://www.w3.org/2000/01/rdf-schema#" xmlns:dc="http://purl.org/dc/elements/1.1/"><rdf:Description about="https://iconscout.com/legal#licenses" dc:title="notes" dc:description="notes" dc:publisher="Iconscout" dc:date="2017-09-26" dc:format="image/svg+xml" dc:language="en"><dc:creator><rdf:Bag><rdf:li>Giulio Smedile</rdf:li></rdf:Bag></dc:creator></rdf:Description></rdf:RDF></metadata></svg>