<?xml version="1.0" encoding="UTF-8"?><svg xmlns="http://www.w3.org/2000/svg" xmlns:xlink="http://www.w3.org/1999/xlink" width="120px" height="120px" viewBox="0 0 120 120" version="1.1"><title>Phone</title><defs><linearGradient x1="50%" y1="0%" x2="50%" y2="100%" id="linearGradient-1"><stop stop-color="#91FC8A" offset="0%"/><stop stop-color="#00DD35" offset="100%"/></linearGradient><rect id="path-2" x="0" y="0" width="120" height="120" rx="28"/></defs><g id="@2x" stroke="none" stroke-width="1" fill="none" fill-rule="evenodd"><g id="Phone"><mask id="mask-3" fill="#fff"><use xlink:href="#path-2"/></mask><use id="bg" fill="url(#linearGradient-1)" xlink:href="#path-2"/><path d="M56 47.5v13H46c-6.09 0-9.5 1.5-10.5 9.5 0 2-.5 5-3.5 6l-16 3c-5 .5-6.453-.504-7.5-3C2.005 60.511 18 48 56 47.5zm0 0c38 .5 53.995 13.011 47.5 28.5-1.047 2.496-2.5 3.5-7.5 3l-16-3c-3-1-3.5-4-3.5-6-1-8-4.41-9.5-10.5-9.5H56v-13z" id="phone" fill="#FFF" mask="url(#mask-3)" transform="translate(56.000000, 63.312368) rotate(225.000000) translate(-56.000000, -63.312368)"/></g></g><metadata><rdf:RDF xmlns:rdf="http://www.w3.org/1999/02/22-rdf-syntax-ns#" xmlns:rdfs="http://www.w3.org/2000/01/rdf-schema#" xmlns:dc="http://purl.org/dc/elements/1.1/"><rdf:Description about="https://iconscout.com/legal#licenses" dc:title="phone" dc:description="phone" dc:publisher="Iconscout" dc:date="2017-09-26" dc:format="image/svg+xml" dc:language="en"><dc:creator><rdf:Bag><rdf:li>Giulio Smedile</rdf:li></rdf:Bag></dc:creator></rdf:Description></rdf:RDF></metadata></svg>