<?xml version="1.0" encoding="UTF-8"?><svg xmlns="http://www.w3.org/2000/svg" xmlns:xlink="http://www.w3.org/1999/xlink" width="120px" height="120px" viewBox="0 0 120 120" version="1.1"><title>Photos</title><g id="@2x" stroke="none" stroke-width="1" fill="none" fill-rule="evenodd"><g id="Photos"><rect id="bg" fill="#FFF" x="0" y="0" width="120" height="120" rx="28"/><g id="flower" transform="translate(7.000000, 8.000000)"><rect id="blue" fill="#58B3E4" style="mix-blend-mode:multiply" x="37" y="56" width="32" height="49" rx="16"/><rect id="pink" fill="#E084AE" style="mix-blend-mode:multiply" transform="translate(25.000000, 52.500000) rotate(90.000000) translate(-25.000000, -52.500000)" x="9" y="28" width="32" height="49" rx="16"/><rect id="orange" fill="#FFB92E" style="mix-blend-mode:multiply" x="37" y="0" width="32" height="49" rx="16"/><rect id="green" fill="#BEDB4D" style="mix-blend-mode:multiply" transform="translate(81.000000, 52.500000) rotate(90.000000) translate(-81.000000, -52.500000)" x="65" y="28" width="32" height="49" rx="16"/><rect id="violet" fill="#AE8ED0" style="mix-blend-mode:multiply" transform="translate(32.637825, 72.637825) rotate(-315.000000) translate(-32.637825, -72.637825)" x="16.6378246" y="48.1378246" width="32" height="49" rx="16"/><rect id="yellow" fill="#FEE302" style="mix-blend-mode:multiply" transform="translate(72.637825, 32.637825) rotate(-315.000000) translate(-72.637825, -32.637825)" x="56.6378246" y="8.13782464" width="32" height="49" rx="16"/><rect id="red" fill="#FA8554" style="mix-blend-mode:multiply" transform="translate(32.637825, 32.637825) scale(-1, 1) rotate(-315.000000) translate(-32.637825, -32.637825)" x="16.6378246" y="8.13782464" width="32" height="49" rx="16"/><rect id="teal" fill="#60CBA5" style="mix-blend-mode:multiply" transform="translate(72.637825, 72.637825) scale(-1, 1) rotate(-315.000000) translate(-72.637825, -72.637825)" x="56.6378246" y="48.1378246" width="32" height="49" rx="16"/></g></g></g><metadata><rdf:RDF xmlns:rdf="http://www.w3.org/1999/02/22-rdf-syntax-ns#" xmlns:rdfs="http://www.w3.org/2000/01/rdf-schema#" xmlns:dc="http://purl.org/dc/elements/1.1/"><rdf:Description about="https://iconscout.com/legal#licenses" dc:title="photos" dc:description="photos" dc:publisher="Iconscout" dc:date="2017-09-26" dc:format="image/svg+xml" dc:language="en"><dc:creator><rdf:Bag><rdf:li>Giulio Smedile</rdf:li></rdf:Bag></dc:creator></rdf:Description></rdf:RDF></metadata></svg>