<?xml version="1.0" encoding="UTF-8"?><svg xmlns="http://www.w3.org/2000/svg" xmlns:xlink="http://www.w3.org/1999/xlink" width="120px" height="120px" viewBox="0 0 120 120" version="1.1"><title>Reminders</title><defs><rect id="path-1" x="0" y="0" width="120" height="120" rx="28"/></defs><g id="@2x" stroke="none" stroke-width="1" fill="none" fill-rule="evenodd"><g id="Reminders"><mask id="mask-2" fill="#fff"><use xlink:href="#path-1"/></mask><use id="bg" fill="#FFF" xlink:href="#path-1"/><path id="Rectangle-Copy" fill="#C7C5C9" mask="url(#mask-2)" d="M40 104h83v2H40z"/><path id="Rectangle-Copy-2" fill="#C7C5C9" mask="url(#mask-2)" d="M40 73h83v2H40z"/><path id="Rectangle-Copy-3" fill="#C7C5C9" mask="url(#mask-2)" d="M40 42h83v2H40z"/><path id="Rectangle-Copy-4" fill="#C7C5C9" mask="url(#mask-2)" d="M40 11h83v2H40z"/><path d="M20 69c-5.523 0-10-4.477-10-10s4.477-10 10-10 10 4.477 10 10-4.477 10-10 10zm0-2a8 8 0 1 0 0-16 8 8 0 0 0 0 16zm0-2a6 6 0 1 1 0-12 6 6 0 0 1 0 12z" id="Combined-Shape" fill="#07A9FC" mask="url(#mask-2)"/><path d="M20 99c-5.523 0-10-4.477-10-10s4.477-10 10-10 10 4.477 10 10-4.477 10-10 10zm0-2a8 8 0 1 0 0-16 8 8 0 0 0 0 16zm0-2a6 6 0 1 1 0-12 6 6 0 0 1 0 12z" id="Combined-Shape-Copy-2" fill="#62DC30" mask="url(#mask-2)"/><path d="M20 39c-5.523 0-10-4.477-10-10s4.477-10 10-10 10 4.477 10 10-4.477 10-10 10zm0-2a8 8 0 1 0 0-16 8 8 0 0 0 0 16zm0-2a6 6 0 1 1 0-12 6 6 0 0 1 0 12z" id="Combined-Shape-Copy" fill="#FF9521" mask="url(#mask-2)"/></g></g><metadata><rdf:RDF xmlns:rdf="http://www.w3.org/1999/02/22-rdf-syntax-ns#" xmlns:rdfs="http://www.w3.org/2000/01/rdf-schema#" xmlns:dc="http://purl.org/dc/elements/1.1/"><rdf:Description about="https://iconscout.com/legal#licenses" dc:title="reminders" dc:description="reminders" dc:publisher="Iconscout" dc:date="2017-09-26" dc:format="image/svg+xml" dc:language="en"><dc:creator><rdf:Bag><rdf:li>Giulio Smedile</rdf:li></rdf:Bag></dc:creator></rdf:Description></rdf:RDF></metadata></svg>