<?xml version="1.0" encoding="UTF-8"?><svg xmlns="http://www.w3.org/2000/svg" xmlns:xlink="http://www.w3.org/1999/xlink" width="120px" height="120px" viewBox="0 0 120 120" version="1.1"><title>Stocks</title><defs><rect id="path-1" x="0" y="0" width="120" height="120" rx="28"/><linearGradient x1="50%" y1="0%" x2="50%" y2="100%" id="linearGradient-3"><stop stop-color="#EEE" stop-opacity="0.3" offset="0%"/><stop stop-color="#D8D8D8" stop-opacity="0" offset="100%"/></linearGradient><circle id="path-4" cx="98" cy="39" r="6"/></defs><g id="@2x" stroke="none" stroke-width="1" fill="none" fill-rule="evenodd"><g id="Stocks"><mask id="mask-2" fill="#fff"><use xlink:href="#path-1"/></mask><use id="bg" fill="#1C181B" xlink:href="#path-1"/><g mask="url(#mask-2)"><g transform="translate(-19.000000, 0.000000)"><g id="line" stroke="none" stroke-width="1" fill="none" fill-rule="evenodd" transform="translate(36.000000, 0.000000)"><path id="Rectangle" fill="#3C3A3E" d="M0 0h3v120H0z"/><path id="Rectangle-Copy" fill="#3C3A3E" d="M20 0h3v120h-3z"/><path id="Rectangle-Copy-2" fill="#3C3A3E" d="M40 0h3v120h-3z"/><path id="Rectangle-Copy-3" fill="#3C3A3E" d="M81 0h3v120h-3z"/><path id="Rectangle-Copy-4" fill="#00B0FC" d="M60 0h3v120h-3z"/></g><path id="graph" stroke="#FFF" stroke-width="2" fill="url(#linearGradient-3)" fill-rule="evenodd" d="M19 65.5h5.5L38 73l13.5-10.5L58 69l6.5-18 6 18 6.5 6.5 8.5-13 6.5-3L98 39l7.5 18.25 5.5-4.75 7.5 16.5 6.5-16.5 17-16 9.5 96H0l8.5-67z"/><g id="Oval" stroke="none" fill="none"><use fill="#00B3F9" fill-rule="evenodd" xlink:href="#path-4"/><circle stroke="#1C181B" stroke-width="1" cx="98" cy="39" r="6.5"/></g></g></g></g></g><metadata><rdf:RDF xmlns:rdf="http://www.w3.org/1999/02/22-rdf-syntax-ns#" xmlns:rdfs="http://www.w3.org/2000/01/rdf-schema#" xmlns:dc="http://purl.org/dc/elements/1.1/"><rdf:Description about="https://iconscout.com/legal#licenses" dc:title="stocks" dc:description="stocks" dc:publisher="Iconscout" dc:date="2017-09-26" dc:format="image/svg+xml" dc:language="en"><dc:creator><rdf:Bag><rdf:li>Giulio Smedile</rdf:li></rdf:Bag></dc:creator></rdf:Description></rdf:RDF></metadata></svg>