<?xml version="1.0" encoding="UTF-8"?><svg xmlns="http://www.w3.org/2000/svg" xmlns:xlink="http://www.w3.org/1999/xlink" width="120px" height="120px" viewBox="0 0 120 120" version="1.1"><title>TV</title><defs><linearGradient x1="-17.6424914%" y1="-19.0474491%" x2="100%" y2="100%" id="linearGradient-1"><stop stop-color="#00DBE9" offset="0%"/><stop stop-color="#00F8CB" offset="39.670902%"/><stop stop-color="#00BCD7" offset="100%"/></linearGradient></defs><g id="@2x" stroke="none" stroke-width="1" fill="none" fill-rule="evenodd"><g id="TV"><rect id="bg" fill="#282829" x="0" y="0" width="120" height="120" rx="28"/><path d="M22 34v43h76V34H22zm0-5h76a5 5 0 0 1 5 5v43a5 5 0 0 1-5 5H22a5 5 0 0 1-5-5V34a5 5 0 0 1 5-5z" id="Rectangle" fill="#FFF" fill-rule="nonzero"/><path id="Rectangle-3" fill="url(#linearGradient-1)" d="M22 34h76v43H22z"/><rect id="Rectangle-2" fill="#FFF" x="35" y="85" width="49" height="6" rx="2"/></g></g><metadata><rdf:RDF xmlns:rdf="http://www.w3.org/1999/02/22-rdf-syntax-ns#" xmlns:rdfs="http://www.w3.org/2000/01/rdf-schema#" xmlns:dc="http://purl.org/dc/elements/1.1/"><rdf:Description about="https://iconscout.com/legal#licenses" dc:title="tv" dc:description="tv" dc:publisher="Iconscout" dc:date="2017-09-26" dc:format="image/svg+xml" dc:language="en"><dc:creator><rdf:Bag><rdf:li>Giulio Smedile</rdf:li></rdf:Bag></dc:creator></rdf:Description></rdf:RDF></metadata></svg>