<?xml version="1.0" encoding="UTF-8"?><svg xmlns="http://www.w3.org/2000/svg" xmlns:xlink="http://www.w3.org/1999/xlink" width="120px" height="120px" viewBox="0 0 120 120" version="1.1"><title>Wallet</title><defs><path d="M24 27h72a9 9 0 0 1 9 9v45c0 7.18-5.82 13-13 13H28c-7.18 0-13-5.82-13-13V36a9 9 0 0 1 9-9z" id="path-1"/><path d="M24 31h72a5 5 0 0 1 5 5v13H19V36a5 5 0 0 1 5-5z" id="path-3"/><filter x="-8.5%" y="-50.0%" width="117.1%" height="177.8%" filterUnits="objectBoundingBox" id="filter-4"><feOffset dx="0" dy="-2" in="SourceAlpha" result="shadowOffsetOuter1"/><feGaussianBlur stdDeviation="2" in="shadowOffsetOuter1" result="shadowBlurOuter1"/><feColorMatrix values="0 0 0 0 0 0 0 0 0 0 0 0 0 0 0 0 0 0 0.15 0" type="matrix" in="shadowBlurOuter1"/></filter><path d="M24 38h72a5 5 0 0 1 5 5v13H19V43a5 5 0 0 1 5-5z" id="path-5"/><filter x="-8.5%" y="-50.0%" width="117.1%" height="177.8%" filterUnits="objectBoundingBox" id="filter-6"><feOffset dx="0" dy="-2" in="SourceAlpha" result="shadowOffsetOuter1"/><feGaussianBlur stdDeviation="2" in="shadowOffsetOuter1" result="shadowBlurOuter1"/><feColorMatrix values="0 0 0 0 0 0 0 0 0 0 0 0 0 0 0 0 0 0 0.15 0" type="matrix" in="shadowBlurOuter1"/></filter><path d="M24 45h72a5 5 0 0 1 5 5v13H19V50a5 5 0 0 1 5-5z" id="path-7"/><filter x="-8.5%" y="-50.0%" width="117.1%" height="177.8%" filterUnits="objectBoundingBox" id="filter-8"><feOffset dx="0" dy="-2" in="SourceAlpha" result="shadowOffsetOuter1"/><feGaussianBlur stdDeviation="2" in="shadowOffsetOuter1" result="shadowBlurOuter1"/><feColorMatrix values="0 0 0 0 0 0 0 0 0 0 0 0 0 0 0 0 0 0 0.15 0" type="matrix" in="shadowBlurOuter1"/></filter><path d="M24 53h72a5 5 0 0 1 5 5v17H19V58a5 5 0 0 1 5-5z" id="path-9"/><filter x="-8.5%" y="-40.9%" width="117.1%" height="163.6%" filterUnits="objectBoundingBox" id="filter-10"><feOffset dx="0" dy="-2" in="SourceAlpha" result="shadowOffsetOuter1"/><feGaussianBlur stdDeviation="2" in="shadowOffsetOuter1" result="shadowBlurOuter1"/><feColorMatrix values="0 0 0 0 0 0 0 0 0 0 0 0 0 0 0 0 0 0 0.15 0" type="matrix" in="shadowBlurOuter1"/></filter><path d="M24 27h72a9 9 0 0 1 9 9v45c0 7.18-5.82 13-13 13H28c-7.18 0-13-5.82-13-13V36a9 9 0 0 1 9-9z" id="path-11"/><path d="M60.25 71.998C50.031 71.824 51.916 61 41.5 61H14v35.5h92.5V61H79c-10.416 0-8.531 10.824-18.75 10.998z" id="path-13"/><filter x="-7.6%" y="-25.4%" width="115.1%" height="139.4%" filterUnits="objectBoundingBox" id="filter-14"><feOffset dx="0" dy="-2" in="SourceAlpha" result="shadowOffsetOuter1"/><feGaussianBlur stdDeviation="2" in="shadowOffsetOuter1" result="shadowBlurOuter1"/><feColorMatrix values="0 0 0 0 0 0 0 0 0 0 0 0 0 0 0 0 0 0 0.10229846 0" type="matrix" in="shadowBlurOuter1"/></filter></defs><g id="@2x" stroke="none" stroke-width="1" fill="none" fill-rule="evenodd"><g id="Wallet"><rect id="bg" fill="#1C181B" x="0" y="0" width="120" height="120" rx="28"/><mask id="mask-2" fill="#fff"><use xlink:href="#path-1"/></mask><use id="Rectangle" fill="#E5E3DD" xlink:href="#path-1"/><g id="Rectangle-2" mask="url(#mask-2)"><use fill="#000" fill-opacity="1" filter="url(#filter-4)" xlink:href="#path-3"/><use fill="#50BCD5" fill-rule="evenodd" xlink:href="#path-3"/></g><g id="Rectangle-2-Copy" mask="url(#mask-2)"><use fill="#000" fill-opacity="1" filter="url(#filter-6)" xlink:href="#path-5"/><use fill="#FCC42C" fill-rule="evenodd" xlink:href="#path-5"/></g><g id="Rectangle-2-Copy-2" mask="url(#mask-2)"><use fill="#000" fill-opacity="1" filter="url(#filter-8)" xlink:href="#path-7"/><use fill="#68D95E" fill-rule="evenodd" xlink:href="#path-7"/></g><g id="Rectangle-2-Copy-3" mask="url(#mask-2)"><use fill="#000" fill-opacity="1" filter="url(#filter-10)" xlink:href="#path-9"/><use fill="#F47E7E" fill-rule="evenodd" xlink:href="#path-9"/></g><mask id="mask-12" fill="#fff"><use xlink:href="#path-11"/></mask><path stroke="#E5E3DD" stroke-width="4" d="M24 29a7 7 0 0 0-7 7v45c0 6.075 4.925 11 11 11h64c6.075 0 11-4.925 11-11V36a7 7 0 0 0-7-7H24z"/><g id="Combined-Shape" mask="url(#mask-12)"><use fill="#000" fill-opacity="1" filter="url(#filter-14)" xlink:href="#path-13"/><use fill="#E5E3DD" fill-rule="evenodd" xlink:href="#path-13"/></g></g></g><metadata><rdf:RDF xmlns:rdf="http://www.w3.org/1999/02/22-rdf-syntax-ns#" xmlns:rdfs="http://www.w3.org/2000/01/rdf-schema#" xmlns:dc="http://purl.org/dc/elements/1.1/"><rdf:Description about="https://iconscout.com/legal#licenses" dc:title="wallet" dc:description="wallet" dc:publisher="Iconscout" dc:date="2017-09-26" dc:format="image/svg+xml" dc:language="en"><dc:creator><rdf:Bag><rdf:li>Giulio Smedile</rdf:li></rdf:Bag></dc:creator></rdf:Description></rdf:RDF></metadata></svg>