<?xml version="1.0" encoding="UTF-8"?><svg xmlns="http://www.w3.org/2000/svg" xmlns:xlink="http://www.w3.org/1999/xlink" width="120px" height="120px" viewBox="0 0 120 120" version="1.1"><title>Weather</title><defs><linearGradient x1="50%" y1="0%" x2="50%" y2="100%" id="linearGradient-1"><stop stop-color="#008EE7" offset="0%"/><stop stop-color="#00D6FA" offset="100%"/></linearGradient><linearGradient x1="50%" y1="0%" x2="50%" y2="100%" id="linearGradient-2"><stop stop-color="#FFCC51" offset="0%"/><stop stop-color="#F2DA48" offset="100%"/></linearGradient></defs><g id="@2x" stroke="none" stroke-width="1" fill="none" fill-rule="evenodd"><g id="Weather"><rect id="bg" fill="url(#linearGradient-1)" x="0" y="0" width="120" height="120" rx="28"/><circle id="sun" fill="url(#linearGradient-2)" cx="40" cy="50" r="22"/><path d="M44 90h42v-.026c10.029-.52 18-8.816 18-18.974 0-10.493-8.507-19-19-19-1.389 0-2.743.15-4.048.432C78.195 44.051 70.304 38 61 38c-11.432 0-20.73 9.134-20.994 20.503C33.102 60.277 28 66.543 28 74c0 8.837 7.163 16 16 16z" id="cloud" fill="#FFF" opacity="0.900000036"/></g></g><metadata><rdf:RDF xmlns:rdf="http://www.w3.org/1999/02/22-rdf-syntax-ns#" xmlns:rdfs="http://www.w3.org/2000/01/rdf-schema#" xmlns:dc="http://purl.org/dc/elements/1.1/"><rdf:Description about="https://iconscout.com/legal#licenses" dc:title="weather" dc:description="weather" dc:publisher="Iconscout" dc:date="2017-09-26" dc:format="image/svg+xml" dc:language="en"><dc:creator><rdf:Bag><rdf:li>Giulio Smedile</rdf:li></rdf:Bag></dc:creator></rdf:Description></rdf:RDF></metadata></svg>